<?xml version="1.0" standalone="no"?><!DOCTYPE svg PUBLIC "-//W3C//DTD SVG 1.1//EN" "http://www.w3.org/Graphics/SVG/1.1/DTD/svg11.dtd"><svg class="icon" width="200px" height="200.00px" viewBox="0 0 1024 1024" version="1.1" xmlns="http://www.w3.org/2000/svg"><path d="M650.461003 550.681998c-0.023536 26.931373 21.794375 48.77896 48.727795 48.797379 26.925233 0.021489 48.770773-21.791305 48.796356-48.724725v-0.069584c0.022513-26.933419-21.797445-48.781006-48.729841-48.799426-26.925233-0.019443-48.771797 21.795399-48.79431 48.727794v0.068562z" fill="#108EE9" /><path d="M310.107315 287.713794c-4.186346-15.157211-11.921517-58.404178-11.921517-74.872245 0-98.650811 80.292698-178.945555 178.944532-178.945554 98.649787 0 178.943508 87.801718 178.943508 186.451505 0 51.114145-88.748277 55.32505-177.181375 63.028499-82.242096 7.164167-158.716838 40.784892-168.785148 4.337795zM477.13033 98.875938c-62.84021 0-113.854071 51.126424-113.854071 113.853048 0 7.546883 0.740874 14.923898 2.152013 22.065551a112.775506 112.775506 0 0 0 5.498224 18.938328c16.508999 42.558281 57.920154-16.57449 106.203834-16.57449 48.702212 0 90.412173 46.180785 106.625436 3.039219 4.669346-12.422937 7.226588-13.443174 7.226588-27.467585 0-62.72867-51.014884-113.854071-113.852024-113.854071z" fill="#10E9B9" /><path d="M682.892647 990.104005H617.801163c-36.149315 0-68.131727-19.371186-85.024466-49.438992a640.804574 640.804574 0 0 1-41.554418 0c-16.891715 30.067806-48.875151 49.438992-85.024465 49.438992h-65.089437c-53.829999 0-97.637738-43.806715-97.637738-97.637737v-26.916023c-60.022025-42.11519-100.790544-99.323123-119.145587-167.344333-43.582611-9.909697-76.127841-48.984644-76.127842-95.496981 0-48.311309 35.135218-88.515986 81.081667-96.511077C178.380178 347.637582 335.363536 234.910171 511.94423 234.910171c42.681078 0 84.46267 6.307659 124.552737 18.807345l31.193443-28.605502c15.991206-14.639418 36.599569-22.297842 58.558697-21.284769 21.736047 0.901533 41.781592 10.249435 56.421011 26.240641 17.004279 18.582217 24.437575 43.468001 20.383236 68.245314l-7.995092 48.198745a375.565654 375.565654 0 0 1 60.47535 73.988108h22.63451c53.828976 0 97.635691 43.806715 97.635691 97.635691v162.729222c0 53.827953-43.807738 97.637738-97.635691 97.637737H864.42819c-21.284769 33.668821-49.437969 62.83714-83.895759 87.046519v26.916023c-0.002047 53.832046-43.697221 97.638761-97.639784 97.63876zM579.851852 872.421746l6.192026 27.365254c3.266393 14.640442 16.667611 25.337061 31.757285 25.337062h65.091484c17.904789 0 32.546254-14.638395 32.546253-32.544207v-62.389956l15.315824-9.572006c37.951357-23.762193 67.005067-54.055127 86.487794-89.981361l9.234315-17.004279h51.690266c17.904789 0 32.54523-14.638395 32.54523-32.544207V518.134721c0-17.905812-14.640442-32.54523-32.54523-32.545231h-60.474327l-9.233292-16.779151c-17.793248-32.097022-41.216727-60.924581-69.707618-85.700871l-13.740955-11.936867 13.851472-83.560114c0.787946-4.954849-0.676405-9.909697-4.052292-13.625322-3.943822-4.39203-8.785084-5.180999-11.263532-5.293563-2.702552-0.11154-7.320733 0.338714-11.711739 4.28049l-59.909461 54.955636-18.583241-6.755868c-38.625716-14.077623-79.392188-21.283746-121.17071-21.283745-155.408489 0-292.348348 102.929254-325.794088 244.71242l-5.857404 25.112958h-34.123169c-18.130939 0-32.882921 14.751982-32.882921 32.881898 0 18.131963 14.751982 32.885991 32.882921 32.885991h31.758308l4.954848 26.576286c12.273535 66.10558 50.452065 120.836089 110.474091 158.336168l15.317871 9.573029v62.499449c0 17.905812 14.640442 32.546254 32.546253 32.546254h65.090461c15.089673 0 28.378327-10.585079 31.756261-25.339108l6.194073-27.365254 27.929096 2.026146c26.013467 1.914606 53.716412 1.914606 79.729879 0l27.703968-1.914606z" fill="#108EE9" /></svg>