<?xml version="1.0" standalone="no"?><!DOCTYPE svg PUBLIC "-//W3C//DTD SVG 1.1//EN" "http://www.w3.org/Graphics/SVG/1.1/DTD/svg11.dtd"><svg class="icon" width="200px" height="189.81px" viewBox="0 0 1079 1024" version="1.1" xmlns="http://www.w3.org/2000/svg"><path d="M539.098906 0C619.271045 0 684.264086 65.801388 684.264086 146.972216l0.002409 24.021524C854.766312 229.388693 977.003827 387.753664 977.003827 573.960233c0 56.462629-11.23976 110.365292-31.655647 159.69736l60.928416-0.001205a73.543933 73.543933 0 0 1 32.695295 7.66183c36.11541 17.928201 50.753602 61.525943 32.695294 97.38114l-73.109039 145.16518C986.17393 1008.453472 960.858568 1023.986748 933.167557 1023.986748H146.219284c-27.692216 0-53.006373-15.533277-65.390589-40.12221l-73.110244-145.16518A72.154925 72.154925 0 0 1 0 806.238978C0 766.152909 32.731435 733.656388 73.110244 733.656388h59.740592C112.433745 684.324321 101.193985 630.424067 101.193985 573.961438c0-186.205364 122.239924-344.572746 292.739741-402.967698V146.972216C393.933726 65.801388 458.926767 0 539.098906 0z m467.178895 806.238978H73.10904l73.10904 145.16518h786.877195l73.180117-145.16518zM553.315456 220.447481h-28.43551c-195.369443 7.247417-350.703414 163.194575-350.703414 353.512752 0 55.112171 12.976924 108.263107 37.449002 156.316999l1.305885 2.478048 652.478332-0.365022 1.291428-2.373239c24.38775-47.986428 37.317691-101.044603 37.317691-156.056786 0-190.318177-155.333971-346.265335-350.703414-353.512752zM540.09398 266.236555C705.317254 266.236555 839.669134 397.839331 839.669134 560.71105c0 20.332763-16.35608 36.815335-36.533438 36.815335-20.177358 0-36.533438-16.482573-36.533438-36.815335 0-121.731545-101.181938-220.843824-226.508278-220.843825-20.177358 0-36.533438-16.482573-36.533438-36.815335S519.916622 266.236555 540.09398 266.236555zM539.098906 73.486108c-40.086069 0-72.58259 32.900092-72.58259 73.486108h145.16518l-0.4879-8.570167C607.001274 101.854155 576.321426 73.486108 539.098906 73.486108z" fill="#1890FF" /></svg>