<svg t="1779871820536" class="icon" viewBox="0 0 1024 1024" version="1.1" xmlns="http://www.w3.org/2000/svg" p-id="3297" width="200" height="200"><path d="M425.6 1022H234.1c-53 0-103-19.3-140.8-54.3C54.4 931.7 33 883.5 33 832V192c0-51.5 21.4-99.7 60.3-135.7C131.1 21.3 181.1 2 234.1 2H752c53 0 103 19.3 140.8 54.3 38.9 36 60.3 84.2 60.3 135.7v224.2c0 27.6-22.4 50-50 50s-50-22.4-50-50V192c0-49.6-45.3-90-101.1-90H234.1c-55.7 0-101.1 40.4-101.1 90v640c0 49.6 45.3 90 101.1 90h191.5c27.6 0 50 22.4 50 50s-22.4 50-50 50z" fill="#227CFF" p-id="3298"></path><path d="M680.9 929.7c-61.4 0-119.1-23.9-162.5-67.3C474.9 819 451 761.3 451 699.9c0-61.4 23.9-119.1 67.3-162.5 43.4-43.4 101.1-67.3 162.5-67.3 61.4 0 119.1 23.9 162.5 67.3 43.4 43.4 67.3 101.1 67.3 162.5 0 61.4-23.8 119.1-67.2 162.5-43.4 43.4-101.1 67.3-162.5 67.3z m0-359.7C609.3 570 551 628.3 551 699.9c0 71.6 58.3 129.9 129.9 129.9 71.6 0 129.9-58.3 129.9-129.9 0-71.6-58.3-129.9-129.9-129.9zM941 1010c-12.8 0-25.6-4.9-35.4-14.6L875.3 965c-19.5-19.5-19.5-51.2 0-70.7s51.2-19.5 70.7 0l30.3 30.3c19.5 19.5 19.5 51.2 0 70.7-9.7 9.8-22.5 14.7-35.3 14.7z" fill="#FFC81E" p-id="3299"></path></svg>