<svg t="1779871664597" class="icon" viewBox="0 0 1024 1024" version="1.1" xmlns="http://www.w3.org/2000/svg" width="200" height="200"><path d="M752 1022h-11.3c-38.8 0-76.5-11.9-108.9-34.5C596.6 963 555.1 950 512 950c-43.1 0-84.6 13-119.8 37.5-32.4 22.6-70.1 34.5-108.9 34.5H272c-104.8 0-190-85.2-190-190V192C82 87.2 167.2 2 272 2h480c104.8 0 190 85.2 190 190v640c0 104.8-85.2 190-190 190zM512 850c63.7 0 124.8 19.2 176.9 55.4 15.6 10.8 33.5 16.6 51.8 16.6H752c49.6 0 90-40.4 90-90V192c0-49.6-40.4-90-90-90H272c-49.6 0-90 40.4-90 90v640c0 49.6 40.4 90 90 90h11.3c18.3 0 36.2-5.7 51.8-16.6C387.2 869.2 448.3 850 512 850z" fill="#999999"></path><path d="M402 420.5h220c27.6 0 50-22.4 50-50s-22.4-50-50-50H402c-27.6 0-50 22.4-50 50s22.4 50 50 50zM622 559.5H402c-27.6 0-50 22.4-50 50s22.4 50 50 50h220c27.6 0 50-22.4 50-50s-22.4-50-50-50z" fill="#CCCCCC"></path></svg>