<svg t="1779871716740" class="icon" viewBox="0 0 1024 1024" version="1.1" xmlns="http://www.w3.org/2000/svg" width="200" height="200"><path d="M621.9 2H192.2C87.3 2 2 87.2 2 192v640c0 104.8 85.3 190 190.2 190h304.6c27.6 0 50-22.4 50-50s-22.4-50-50-50H192.2c-49.7 0-90.2-40.4-90.2-90V192c0-49.6 40.5-90 90.2-90h429.7c49.7 0 90.2 40.4 90.2 90v3c0 27.6 22.4 50 50 50s50-22.4 50-50v-3C812 87.2 726.7 2 621.9 2z" fill="#999999"></path><path d="M527.2 250H286.9c-27.6 0-50 22.4-50 50s22.4 50 50 50h240.3c27.6 0 50-22.4 50-50s-22.4-50-50-50zM286.9 462.2c-27.6 0-50 22.4-50 50s22.4 50 50 50H367c27.6 0 50-22.4 50-50s-22.4-50-50-50h-80.1z" fill="#999999"></path><path d="M1007.6 334.7c-15.3-32.8-41.6-57.3-74-69-36.2-13.1-77.3-8.8-112.8 11.7-33.1 19.2-59 50.6-72.9 88.6L570.2 851.2c-5.1 13.9-3.8 29.3 3.6 42.2L632.4 995c9.1 15.9 25.9 25 43.3 25 5.7 0 11.5-1 17.2-3l110.7-40.5c13.8-5.1 24.7-15.9 29.8-29.8l152.1-415.2c0.5-1.1 0.9-2.2 1.3-3.3 0.4-1 0.7-2 1-3.1l23.3-63.7c15.6-42.2 14.3-88.5-3.5-126.7z m-108 25c9.2 3.3 14.5 11.2 17.3 17.2 6.6 14.1 6.7 32.9 0.3 50.2l-7.3 20-75.2-27.3 7.1-19.4c10.7-28.9 37.7-48 57.8-40.7zM747.5 890.6l-49.4 18.1-25.9-45 128.2-350 75.2 27.3-128.1 349.6z" fill="#CCCCCC"></path></svg>