<svg t="1779871587386" class="icon" viewBox="0 0 1024 1024" version="1.1" xmlns="http://www.w3.org/2000/svg" p-id="2665" width="200" height="200"><path d="M821.8 183.1v0.3H842c-3.3-0.2-6.6-0.3-10-0.3h-10.2zM102.3 183.1v0.3h619.3v-0.3H102.3zM95.1 183.1c1.5 0.2 3 0.3 4.5 0.3h2.7v-0.3h-7.2z" fill="#227CFF" p-id="2666"></path><path d="M721.7 183.1v0.3h100.2v-0.3H721.7z" fill="#227CFF" p-id="2667"></path><path d="M674.6 670.4c-37.2 0-67.4-30.2-67.4-67.4s30.2-67.4 67.4-67.4H922v-100H674.6c-92.3 0-167.4 75.1-167.4 167.4 0 92.3 75.1 167.4 167.4 167.4H922v-100H674.6z" fill="#FFC81E" p-id="2668"></path><path d="M842 183.3H99.6c-1.5 0-3-0.1-4.5-0.3h7.2c3.8-43.3 38.3-77.9 81.5-81.7 2.7-0.2 5.4-0.4 8.1-0.4h440c2.7 0 5.4 0.1 8.1 0.4 43.2 3.9 77.8 38.5 81.5 81.7h100.2c-1.2-29.5-9.2-57.2-22.3-81.7C767.4 41.6 704.4 0.9 632 0.9H192C87.2 0.9 2 86.2 2 190.9v642.2c0 104.8 85.2 190 190 190h640c104.8 0 190-85.2 190-190v-460c0-101.5-79.9-184.6-180-189.8z m80 252.4V833.1c0 49.6-40.4 90-90 90H192c-49.6 0-90-40.4-90-90v-550h730c49.6 0 90 40.4 90 90v62.6z" fill="#227CFF" p-id="2669"></path></svg>