<svg t="1779871758617" class="icon" viewBox="0 0 1024 1024" version="1.1" xmlns="http://www.w3.org/2000/svg" width="200" height="200"><path d="M806 652l-244-88.8V407.5c0-27.6-22.4-50-50-50s-50 22.4-50 50V539c-13.5 4.8-24.9 15.4-30.2 30-9.4 25.9 3.9 54.6 29.9 64.1l0.6 0.2c2.9 24.9 24 44.2 49.7 44.2 13.3 0 25.4-5.2 34.3-13.6L771.8 746c5.6 2.1 11.4 3 17.1 3 20.4 0 39.6-12.6 47-32.9 9.4-26-3.9-54.7-29.9-64.1z" fill="#CCCCCC"></path><path d="M832 129.5h-30.5V52.3c0-27.6-22.4-50-50-50s-50 22.4-50 50v77.2H667c-27.6 0-50 22.4-50 50s22.4 50 50 50h34.5v22.8c0 27.6 22.4 50 50 50s50-22.4 50-50v-22.8H832c49.6 0 90 40.4 90 90v512.2c0 49.6-40.4 90-90 90H192c-49.6 0-90-40.4-90-90V319.5c0-49.6 40.4-90 90-90h30.5v22.8c0 27.6 22.4 50 50 50s50-22.4 50-50v-22.8H357c27.6 0 50-22.4 50-50s-22.4-50-50-50h-34.5V52.3c0-27.6-22.4-50-50-50s-50 22.4-50 50v77.2H192c-104.8 0-190 85.2-190 190v512.2c0 104.8 85.2 190 190 190h640c104.8 0 190-85.2 190-190V319.5c0-104.8-85.2-190-190-190z" fill="#999999"></path><path d="M492 229.5h40c27.6 0 50-22.4 50-50s-22.4-50-50-50h-40c-27.6 0-50 22.4-50 50s22.4 50 50 50z" fill="#999999"></path></svg>